<?xml version="1.0" encoding="UTF-8"?>
<svg id="b" data-name="圖層 2" xmlns="http://www.w3.org/2000/svg" width="184.01" height="42.6" xmlns:xlink="http://www.w3.org/1999/xlink" viewBox="0 0 184.01 42.6">
  <defs>
    <clipPath id="d">
      <rect x="56.87" y=".06" width="7.03" height="42.55" style="fill: none;"/>
    </clipPath>
    <linearGradient id="e" x1="-2541.81" y1="4433.08" x2="-2539.19" y2="4433.08" gradientTransform="translate(71962.26 -41184.1) rotate(-90) scale(16.22 -16.22)" gradientUnits="userSpaceOnUse">
      <stop offset="0" stop-color="#30af8c"/>
      <stop offset=".17" stop-color="#2faa89"/>
      <stop offset=".34" stop-color="#2e9e83"/>
      <stop offset=".52" stop-color="#2c8977"/>
      <stop offset=".7" stop-color="#296b68"/>
      <stop offset=".88" stop-color="#264654"/>
      <stop offset="1" stop-color="#242945"/>
    </linearGradient>
    <clipPath id="f">
      <path d="M39.12,17.81h-14.34c-13.69,0-24.78,11.1-24.78,24.79H7.03c0-9.81,7.95-17.75,17.75-17.75h14.34c13.68,0,24.78-11.1,24.78-24.79h-7.03c0,9.8-7.95,17.75-17.75,17.75" style="fill: none;"/>
    </clipPath>
    <linearGradient id="g" x1="-2886.85" y1="4395.67" x2="-2884.22" y2="4395.67" gradientTransform="translate(-70261.41 -107059.86) rotate(-180) scale(24.36 -24.36)" gradientUnits="userSpaceOnUse">
      <stop offset="0" stop-color="#30af8c"/>
      <stop offset=".14" stop-color="#2ea989"/>
      <stop offset=".31" stop-color="#2b9980"/>
      <stop offset=".49" stop-color="#278275"/>
      <stop offset=".62" stop-color="#26706b"/>
      <stop offset=".86" stop-color="#244453"/>
      <stop offset="1" stop-color="#242945"/>
    </linearGradient>
  </defs>
  <g id="c" data-name="圖層 1">
    <g>
      <g>
        <rect width="26.33" height="7.1" style="fill: #05014a;"/>
        <rect y="0" width="7.09" height="42.6" style="fill: #05014a;"/>
        <rect x="31.96" y=".06" width="7.09" height="42.55" style="fill: #30af8c;"/>
        <g style="clip-path: url(#d);">
          <rect x="56.87" y=".06" width="7.03" height="42.55" style="fill: url(#e);"/>
        </g>
        <g style="clip-path: url(#f);">
          <rect y=".06" width="63.9" height="42.55" style="fill: url(#g);"/>
        </g>
      </g>
      <g>
        <g>
          <path d="M85.21,7.86c-.32-.84-.7-1.93-.92-2.77-.06-.22-.28-.38-.46-.38h-.52c-.18,0-.4,.12-.46,.3-.28,.8-.86,2.37-1.26,3.19h4.41v1.32h-1.81v1.89h2.75v1.32h-2.75v5.56c.76-.12,1.99-.42,2.75-.64v1.48c-1.95,.48-5.3,1.18-7.4,1.4v-1.44c.7-.08,2.11-.26,2.95-.42v-5.94h-2.87v-1.32h2.87v-1.89h-1.97v-.88h-1.14c.78-1.34,1.47-2.91,1.83-4.25,.08-.32,.32-.6,.6-.8,.26-.16,.56-.26,.86-.26h1.59c.38,0,.7,.1,.98,.28,.26,.2,.48,.46,.56,.84,.26,1,.72,2.29,1.22,3.41h-1.81Zm-4.88,9.59c-.26-1.12-.56-2.73-.66-3.79h1.5c.08,.92,.38,2.71,.7,3.79h-1.54Zm5.88-.12h-1.56c.32-1.06,.56-2.41,.68-3.67h1.5c-.1,1.28-.3,2.49-.62,3.67Zm3.01,3.19c-.48,0-.9-.22-1.2-.56-.28-.32-.44-.74-.44-1.18V4.97c0-.44,.2-.84,.5-1.14s.7-.48,1.12-.48h7.52v1.46h-6.88c-.22,0-.54,.26-.54,.48v2.91h5.38c.5,0,.9,.2,1.16,.52,.26,.28,.38,.68,.38,1.08v3.69c0,.44-.14,.82-.38,1.08-.3,.36-.78,.54-1.34,.54h-5.2v3.51c0,.26,.22,.52,.5,.52h7.14v1.4h-7.72Zm5.22-10.45c0-.22-.24-.46-.46-.46h-4.69v4.09h4.61c.32,0,.54-.18,.54-.52v-3.11Z" style="fill: #05014a; stroke: #05014a; stroke-miterlimit: 10; stroke-width: .25px;"/>
          <path d="M109.99,12.34h-1.63c.52-1.75,.76-3.67,.78-5.62h1.54c-.06,1.89-.26,4.01-.68,5.62Zm1.16,8.15V3.11h1.77V20.5h-1.77Zm2.57-8.99c-.16-1.58-.32-3.17-.32-4.78h1.46c.02,1.65,.14,3.25,.42,4.78h-1.56Zm10.07-.62c-.18-.28-.48-.82-.62-1.1l-.42,1.1h-6.52c-.34,0-.64-.26-.8-.6-.14-.32-.14-.72,.06-1.1l3.23-6.08h1.93l-3.39,6.4h5.74c-.42-.9-1.12-2.57-1.48-3.73h1.81c.66,1.79,1.44,3.49,2.53,5.1h-2.09Zm.42,9.19c-.28,.22-.66,.36-1.1,.36h-5.98c-.36,0-.72-.16-1-.44-.3-.28-.48-.66-.48-1.08v-4.63c0-.52,.22-.96,.56-1.24,.3-.26,.72-.4,1.14-.4h5.7c.54,0,.96,.2,1.26,.5,.3,.32,.46,.74,.46,1.16v4.69c0,.4-.2,.8-.56,1.08Zm-1.22-5.6c0-.22-.22-.4-.46-.4h-4.66c-.28,0-.48,.24-.48,.52v3.97c0,.3,.22,.46,.44,.46h4.76c.22,0,.4-.22,.4-.44v-4.11Z" style="fill: #05014a; stroke: #05014a; stroke-miterlimit: 10; stroke-width: .25px;"/>
          <path d="M143.92,11.7c-.78-.62-1.42-1.42-2.05-2.15-.56,.74-1.16,1.54-1.89,2.15h-2.71c1.08-.74,2.23-1.77,3.01-2.89h-2.89v-1.3h3.51c.24-.58,.38-1.2,.42-1.85h-.96c-.2,.38-.44,.84-.68,1.14h-2.15c.86-1.16,1.44-2.43,1.91-3.75h1.99c-.1,.34-.32,.88-.48,1.26h4.62v1.36h-2.45c-.1,.62-.2,1.26-.36,1.85h3.71v1.3h-4.21c-.1,.22-.2,.38-.3,.54h2.11c.74,.9,1.71,1.65,2.53,2.35h-2.69Zm9.27,8.37c-.34,.28-.82,.46-1.44,.46h-11.74c-.46,0-.88-.18-1.18-.48-.32-.32-.52-.76-.52-1.26v-4.49c0-.5,.18-.94,.54-1.24,.32-.3,.78-.48,1.38-.48h11.92c.6,0,1.02,.26,1.28,.6,.26,.34,.38,.76,.38,1.14v4.37c0,.52-.2,1.02-.62,1.38Zm-1.2-5.62c0-.38-.22-.52-.58-.52h-10.73c-.36,0-.6,.2-.6,.56v1.38h11.9v-1.42Zm0,2.75h-11.9v1.36c0,.42,.2,.62,.56,.62h10.69c.46,0,.66-.22,.66-.6v-1.38Zm1.97-5.8c-.28,.24-.66,.4-1.12,.4h-4.15c-.4,0-.76-.16-1.02-.42-.3-.3-.48-.72-.48-1.14V5.66c0-.54,.24-.96,.64-1.22,.32-.22,.74-.32,1.2-.32h3.79c.4,0,.86,.14,1.18,.44,.26,.26,.44,.62,.44,1.1v4.61c0,.46-.18,.86-.48,1.14Zm-1.28-5.48c0-.28-.22-.46-.56-.46h-2.73c-.24,0-.52,.16-.52,.48v4.01c0,.26,.22,.48,.44,.48h2.91c.26,0,.46-.12,.46-.48V5.92Z" style="fill: #05014a; stroke: #05014a; stroke-miterlimit: 10; stroke-width: .25px;"/>
          <path d="M171.37,9.29v.74h-1.77v-.74h-3.41v-1.2h3.41v-.84h-2.71v-1.22h2.71v-.8h-3.21v-1.26h3.21v-.88h1.77v.88h3.03v1.26h-3.03v.8h2.63v1.22h-2.63v.84h3.25v1.2h-3.25Zm-2.93,10.99h-2.25c.86-1.08,1.48-2.25,1.89-3.49h1.99c-.44,1.2-.96,2.39-1.64,3.49Zm13.92-6.48v.68c0,.34-.16,.74-.5,1.04-.3,.28-.72,.46-1.3,.46h-13.22v-1.22h12.76c.26,0,.46-.22,.46-.48v-.48h-14.35v-1.3h14.35v-.44c0-.28-.2-.44-.46-.44h-12.78v-1.18h13.66c.32,0,.64,.14,.9,.38,.28,.28,.48,.66,.48,1.1v.58h1.24v1.3h-1.24Zm-2.75,6.74h-7.06c-.44,0-.88-.18-1.18-.48-.3-.3-.5-.72-.5-1.2v-2.31h1.79v2.25c0,.22,.14,.38,.4,.38h7.12l-.58,1.36Zm-3.89-2.01c-.46-.68-.8-1.42-1.14-2.13h1.93c.34,.76,.76,1.44,1.36,2.13h-2.15Zm4.41-9.21v.72h-1.77v-.72h-3.27v-1.18h3.27v-.88h-2.61v-1.22h2.61v-.8h-3.09v-1.26h3.09v-.88h1.77v.88h3.21v1.26h-3.21v.8h2.75v1.22h-2.75v.88h3.45v1.18h-3.45Zm1.3,10.97c-.88-1.08-1.44-2.35-2.01-3.53h2.07c.52,1.24,1.2,2.37,2.25,3.53h-2.31Z" style="fill: #05014a; stroke: #05014a; stroke-miterlimit: 10; stroke-width: .25px;"/>
        </g>
        <g>
          <path d="M180.65,28.35h1.34v2.8h1.42v1.21h-1.42v6.55h-1.34v-6.55h-.83v-1.21h.83v-2.8Z" style="fill: #05014a;"/>
          <path d="M79.61,26.77h5.77v1.24h-4.37v3.62h4.24v1.24h-4.24v6.02h-1.4v-12.14Z" style="fill: #05014a;"/>
          <path d="M97.9,31.15v7.76h-1.34v-1.07h-.03c-.29,.37-.66,.67-1.1,.9-.49,.25-1.03,.38-1.61,.37-1.18-.02-2.11-.43-2.8-1.23-.68-.8-1.02-1.75-1.02-2.85s.35-2.11,1.04-2.89c.69-.78,1.62-1.18,2.78-1.2,.52,0,1.02,.11,1.51,.36,.47,.23,.87,.55,1.2,.97h.03v-1.12h1.34Zm-6.53,3.82c0,.82,.23,1.52,.69,2.08,.47,.58,1.12,.87,1.94,.87s1.42-.27,1.9-.82c.49-.55,.73-1.26,.73-2.14,0-.76-.23-1.41-.68-1.96-.48-.57-1.14-.86-1.97-.86-.76,0-1.38,.27-1.88,.82-.49,.55-.74,1.21-.74,2Z" style="fill: #05014a;"/>
          <path d="M103.64,35.06c0-1.16,.42-2.14,1.25-2.94,.81-.78,1.81-1.17,2.99-1.18,.47,0,.95,.08,1.43,.25,.43,.16,.76,.33,1.01,.53v1.74c-.66-.81-1.49-1.24-2.48-1.31-.82,.03-1.5,.31-2.03,.85-.53,.54-.79,1.21-.79,2.02s.25,1.51,.75,2.05c.51,.55,1.18,.84,2.02,.86,1.13-.07,1.99-.52,2.58-1.34v1.75c-.26,.19-.6,.37-1.01,.52-.46,.18-.96,.26-1.48,.26-1.18,0-2.17-.39-2.99-1.14-.82-.75-1.23-1.72-1.23-2.91Z" style="fill: #05014a;"/>
          <path d="M119.69,30.94c1.26,.01,2.21,.44,2.86,1.28,.62,.81,.92,1.75,.92,2.81,0,.03,0,.08,0,.14,0,.06,0,.11,0,.14h-6.23c.01,.73,.25,1.34,.73,1.83,.49,.51,1.12,.77,1.89,.78,.58,0,1.07-.15,1.47-.48,.38-.31,.7-.68,.95-1.13l1.13,.65c-.35,.64-.82,1.16-1.44,1.54-.64,.4-1.37,.61-2.19,.61-1.15,0-2.09-.37-2.81-1.1-.73-.74-1.09-1.7-1.09-2.9s.34-2.17,1.01-2.96c.69-.81,1.63-1.22,2.82-1.21Zm-2.4,3.26h4.76c-.1-.58-.36-1.06-.78-1.45-.44-.4-.95-.6-1.54-.61-.59,0-1.12,.19-1.58,.59-.46,.4-.74,.88-.85,1.47Z" style="fill: #05014a;"/>
          <path d="M130.68,26.77v4.94h6.53v-4.94h1.4v12.14h-1.4v-5.96h-6.53v5.96h-1.4v-12.14h1.4Z" style="fill: #05014a;"/>
          <path d="M147.83,30.94c1.26,.01,2.21,.44,2.86,1.28,.62,.81,.92,1.75,.92,2.81,0,.03,0,.08,0,.14,0,.06,0,.11,0,.14h-6.23c.01,.73,.25,1.34,.73,1.83,.49,.51,1.12,.77,1.89,.78,.58,0,1.07-.15,1.47-.48,.38-.31,.7-.68,.95-1.13l1.13,.65c-.35,.64-.82,1.16-1.44,1.54-.64,.4-1.37,.61-2.19,.61-1.15,0-2.09-.37-2.81-1.1-.73-.74-1.09-1.7-1.09-2.9s.34-2.17,1.01-2.96c.69-.81,1.63-1.22,2.82-1.21Zm-2.4,3.26h4.76c-.1-.58-.36-1.06-.78-1.45-.44-.4-.95-.6-1.54-.61-.59,0-1.12,.19-1.58,.59-.46,.4-.74,.88-.85,1.47Z" style="fill: #05014a;"/>
          <path d="M171.04,38.91v-7.76h1.34v.85h.03c.55-.71,1.14-1.06,1.77-1.06,.4,0,.8,.13,1.2,.36l-.64,1.19c-.36-.24-.63-.36-.81-.35-.64,.04-1.07,.34-1.27,.9-.19,.52-.29,1.13-.29,1.82v4.05h-1.34Z" style="fill: #05014a;"/>
          <path d="M164.58,33.53c0-1.54-1.25-2.78-2.79-2.78s-2.78,1.25-2.78,2.78h0s-.13,0-.13,0c-1.54,0-2.79,1.25-2.79,2.79s1.25,2.78,2.79,2.78h5.71v-5.57h0s0,0,0,0Z" style="fill: #e55525;"/>
        </g>
      </g>
    </g>
  </g>
</svg>